<svg width="24" height="8" viewBox="0 0 24 8" fill="none" xmlns="http://www.w3.org/2000/svg">
<path d="M8 4H16M1 6.4V1.6C1 1.44087 1.06321 1.28826 1.17574 1.17574C1.28826 1.06321 1.44087 1 1.6 1H3.4C3.55913 1 3.71174 1.06321 3.82426 1.17574C3.93679 1.28826 4 1.44087 4 1.6V6.4C4 6.55913 3.93679 6.71174 3.82426 6.82426C3.71174 6.93679 3.55913 7 3.4 7H1.6C1.44087 7 1.28826 6.93679 1.17574 6.82426C1.06321 6.71174 1 6.55913 1 6.4ZM23 6.4V1.6C23 1.44087 22.9368 1.28826 22.8243 1.17574C22.7117 1.06321 22.5591 1 22.4 1H20.6C20.4409 1 20.2883 1.06321 20.1757 1.17574C20.0632 1.28826 20 1.44087 20 1.6V6.4C20 6.55913 20.0632 6.71174 20.1757 6.82426C20.2883 6.93679 20.4409 7 20.6 7H22.4C22.5591 7 22.7117 6.93679 22.8243 6.82426C22.9368 6.71174 23 6.55913 23 6.4Z" stroke="#DEE2E6" stroke-width="1.5" stroke-linecap="round" stroke-linejoin="round"/>
</svg>
